<?xml version="1.0" standalone="no"?>
 <!DOCTYPE svg PUBLIC "-//W3C//DTD SVG 1.1//EN" 
 "http://www.w3.org/Graphics/SVG/1.1/DTD/svg11.dtd"> 
<svg
  xmlns:svg="http://www.w3.org/2000/svg"
  xmlns="http://www.w3.org/2000/svg"
  xmlns:xlink="http://www.w3.org/1999/xlink"
  version="1.1"
  width="297.0022mm" height="210.0072mm" viewBox="0.0000 0.0000 297.0022 210.0072">
<title>SVG Image created as botcase-Edge_Cuts.svg date 2026/03/01 00:07:05 </title>
  <desc>Image generated by PCBNEW </desc>
<g style="fill:#000000; fill-opacity:1.0000;stroke:#000000; stroke-opacity:1.0000;
stroke-linecap:round; stroke-linejoin:round;"
 transform="translate(0 0) scale(1 1)">
</g>
<g style="fill:none; 
stroke:#000000; stroke-width:0.1000; stroke-opacity:1; 
stroke-linecap:round; stroke-linejoin:round;">
<path d="M295.0000 27.0000 A1.0000 1.0000 0.0 0 0 296.0000 28.0000" />
<path d="M-14.2500 156.5000
L-14.2500 139.5000
" />
<path d="M-0.5000 46.0000
L-0.5000 29.0000
" />
<path d="M137.7500 86.0000
L148.3922 86.0000
" />
<path d="M120.9970 115.4845
L124.2462 106.5574
" />
<path d="M115.1878 113.9022
L98.2733 107.7458
" />
<path d="M97.6757 106.4641
L99.7875 100.6620
" />
<path d="M126.1681 86.6580
L116.4695 113.3046
" />
<path d="M55.3773,126.5935 C58.3549,126.9591 68.7500,142.5000 68.7500,145.5000" />
<path d="M-4.2500 47.0000 A1.0000 1.0000 0.0 0 0 -5.2500 48.0000" />
<path d="M256.0000 86.0000 A1.0000 1.0000 0.0 0 0 257.0000 85.0000" />
<path d="M10.0000 -10.0000 A1.0000 1.0000 0.0 0 0 9.0000 -9.0000" />
<path d="M258.0000 67.0000 A1.0000 1.0000 0.0 0 0 257.0000 68.0000" />
<path d="M203.4803,94.7954 C175.2895,105.0560 190.6829,108.1690 179.4066,112.2733" />
<path d="M96.0934 112.2733
L113.9476 118.7717
" />
<path d="M115.1878 113.9022 A0.9999 0.9999 0.0 0 0 116.4695 113.3046" />
<path d="M221.7500 175.5000
L274.7500 175.5000
" />
<path d="M-4.2500 47.0000
L-1.5000 47.0000
" />
<path d="M149.3319 86.6580 A1.0000 1.0000 0.0 0 0 148.3922 86.0000" />
<path d="M65.5000,125.0000 C70.6221,129.0018 73.7500,133.0000 73.7500,139.5000" />
<path d="M-14.2500,139.5000 C-14.2500,120.5000 -7.8750,115.5000 4.1250,115.5000" />
<path d="M176.3102 99.3803 A1.0000 1.0000 0.0 0 0 175.7125 100.6620" />
<path d="M97.6757 106.4641 A0.9999 0.9999 0.0 0 0 98.2733 107.7458" />
<path d="M289.7500,135.5000 C289.7500,131.5000 277.7336,120.1864 274.7500,120.5000" />
<path d="M309.2500 47.0000
L309.2500 29.0000
" />
<path d="M258.0000 67.0000
L303.5000 67.0000
" />
<path d="M25.7500,-16.5000 C31.7500,-16.5000 30.5000,-15.0000 66.5000,-15.0000" />
<path d="M303.5000 67.0000 A1.0000 1.0000 0.0 0 0 304.5000 66.0000" />
<path d="M221.7500,175.5000 C217.7500,175.5000 206.7500,164.5000 206.7500,160.5000" />
<path d="M160.3122 113.9022
L177.2267 107.7458
" />
<path d="M0.5000 28.0000 A1.0000 1.0000 0.0 0 0 -0.5000 29.0000" />
<path d="M68.7500 160.5000
L68.7500 145.5000
" />
<path d="M225.7500 180.5000
L270.7500 180.5000
" />
<path d="M-9.2500 135.5000
L-9.2500 160.5000
" />
<path d="M201.7500 139.5000
L201.7500 156.5000
" />
<path d="M0.5000 28.0000
L8.0000 28.0000
" />
<path d="M-1.5000 47.0000 A1.0000 1.0000 0.0 0 0 -0.5000 46.0000" />
<path d="M177.2267 107.7458 A0.9999 0.9999 0.0 0 0 177.8243 106.4641" />
<path d="M220.0513,126.2491 C217.0677,126.5626 206.7500,142.5000 206.7500,145.5000" />
<path d="M177.8243 106.4641
L175.7125 100.6620
" />
<path d="M104.5000,-18.5000 C110.5000,-18.5000 116.0000,-15.0000 152.0000,-15.0000" />
<path d="M305.5000 48.0000
L308.2500 48.0000
" />
<path d="M210.0000,125.0000 C250.9766,92.9856 226.0329,86.5869 203.4803,94.7954" />
<path d="M213.2487 86.0000 A0.9990 0.9990 0.0 0 0 212.9067 86.0603" />
<path d="M289.7500 135.5000
L289.7500 160.5000
" />
<path d="M314.2500,38.0000 C314.2500,14.0000 304.1500,-15.0000 296.1500,-15.0000" />
<path d="M274.7500 120.5000
L220.0513 126.2491
" />
<path d="M99.7874 100.6620 A1.0000 1.0000 0.0 0 0 99.1898 99.3803" />
<path d="M270.7500,180.5000 C289.7500,180.5000 294.7500,175.5000 294.7500,156.5000" />
<path d="M-2.8750,91.0000 C-13.8750,91.0000 -14.2500,86.5000 -14.2500,66.5000" />
<path d="M305.5000 48.0000 A1.0000 1.0000 0.0 0 0 304.5000 49.0000" />
<path d="M149.3319 86.6580
L159.0305 113.3046
" />
<path d="M159.0305 113.3046 A0.9999 0.9999 0.0 0 0 160.3122 113.9022" />
<path d="M308.2500 48.0000 A1.0000 1.0000 0.0 0 0 309.2500 47.0000" />
<path d="M124.2462,106.5574 C131.7706,85.8841 143.7294,85.8841 151.2538,106.5574" />
<path d="M66.5000,-15.0000 C102.5000,-15.0000 94.5000,-18.5000 104.5000,-18.5000" />
<path d="M137.7500 86.0000
L127.1078 86.0000
" />
<path d="M152.0000,-15.0000 C188.0000,-15.0000 193.5000,-18.5000 199.5000,-18.5000" />
<path d="M304.5000 66.0000
L304.5000 49.0000
" />
<path d="M294.7500,139.5000 C294.7500,120.5000 288.3750,115.5000 276.3750,115.5000" />
<path d="M5.7500 120.5000
L55.3773 126.5935
" />
<path d="M53.7500,175.5000 C57.7500,175.5000 68.7500,164.5000 68.7500,160.5000" />
<path d="M294.0000 -10.0000
L26.0000 -10.0000
" />
<path d="M289.7500,160.5000 C289.7500,164.5000 278.7500,175.5000 274.7500,175.5000" />
<path d="M206.7500 160.5000
L206.7500 145.5000
" />
<path d="M49.7500 180.5000
L9.7500 180.5000
" />
<path d="M25.0000 -14.6000
L25.0000 -11.0000
" />
<path d="M294.7500 156.5000
L294.7500 139.5000
" />
<path d="M-9.2500,160.5000 C-9.2500,164.5000 1.7500,175.5000 5.7500,175.5000" />
<path d="M295.0000 -9.0000 A1.0000 1.0000 0.0 0 0 294.0000 -10.0000" />
<path d="M213.2487 86.0000
L256.0000 86.0000
" />
<path d="M99.1898 99.3803
L62.5933 86.0603
" />
<path d="M53.7500 175.5000
L5.7500 175.5000
" />
<path d="M154.5030,115.4845 C155.4435,118.0686 158.9683,119.7122 161.5524,118.7717" />
<path d="M73.7500,156.5000 C73.7500,175.5000 68.7500,180.5000 49.7500,180.5000" />
<path d="M9.7500,180.5000 C-9.2500,180.5000 -14.2500,175.5000 -14.2500,156.5000" />
<path d="M9.0000 27.0000
L9.0000 -9.0000
" />
<path d="M-5.2500 85.0000 A1.0000 1.0000 0.0 0 0 -4.2500 86.0000" />
<path d="M-9.2500,135.5000 C-9.2500,131.5000 2.7724,120.1344 5.7500,120.5000" />
<path d="M276.3750,115.5000 C234.3750,115.5000 260.0000,72.0000 304.0000,72.0000" />
<path d="M296.1500 -15.0000
L294.5000 -15.0000
" />
<path d="M62.5933 86.0603 A0.9994 0.9994 0.0 0 0 62.2513 86.0000" />
<path d="M4.1250,115.5000 C39.1250,115.5000 14.1250,91.0000 -2.8750,91.0000" />
<path d="M151.2538 106.5574
L154.5030 115.4845
" />
<path d="M304.0000,72.0000 C314.0000,72.0000 314.2500,58.0000 314.2500,38.0000" />
<path d="M295.0000 27.0000
L295.0000 -9.0000
" />
<path d="M127.1078 86.0000 A1.0000 1.0000 0.0 0 0 126.1681 86.6580" />
<path d="M13.0000 -11.0000
L13.0000 -14.6000
" />
<path d="M161.5524 118.7717
L179.4066 112.2733
" />
<path d="M13.0000 -14.6000
L25.0000 -14.6000
" />
<path d="M199.5000,-18.5000 C207.5000,-18.5000 199.5000,-15.0000 294.5000,-15.0000" />
<path d="M73.7500 139.5000
L73.7500 156.5000
" />
<path d="M62.2513 86.0000
L-4.2500 86.0000
" />
<path d="M-14.2500,66.5000 C-14.2500,38.5000 -4.7500,-16.5000 12.2500,-16.5000" />
<path d="M257.0000 85.0000
L257.0000 68.0000
" />
<path d="M-5.2500 85.0000
L-5.2500 48.0000
" />
<path d="M25.0000 -11.0000 A1.0000 1.0000 0.0 0 0 26.0000 -10.0000" />
<path d="M210.0000,125.0000 C204.8779,129.0018 201.7500,133.0000 201.7500,139.5000" />
<path d="M8.0000 28.0000 A1.0000 1.0000 0.0 0 0 9.0000 27.0000" />
<path d="M10.0000 -10.0000
L12.0000 -10.0000
" />
<path d="M65.5000,125.0000 C24.5234,92.9856 49.5421,86.5869 72.0947,94.7954" />
<path d="M308.2500 28.0000
L296.0000 28.0000
" />
<path d="M201.7500,156.5000 C201.7500,175.5000 206.7500,180.5000 225.7500,180.5000" />
<path d="M113.9476,118.7717 C116.5317,119.7122 120.0565,118.0686 120.9970,115.4845" />
<path d="M12.0000 -10.0000 A1.0000 1.0000 0.0 0 0 13.0000 -11.0000" />
<path d="M309.2500 29.0000 A1.0000 1.0000 0.0 0 0 308.2500 28.0000" />
<path d="M72.0947,94.7954 C100.2855,105.0560 84.8171,108.1690 96.0934,112.2733" />
<path d="M176.3102 99.3803
L212.9067 86.0603
" />
<path d="M12.2500 -16.5000
L25.7500 -16.5000
" />
</g>
<g style="fill:none; 
stroke:#000000; stroke-width:0.1500; stroke-opacity:1; 
stroke-linecap:round; stroke-linejoin:round;">
<text x="56.0800" y="154.3200"
textLength="185.2500" font-size="8.0000" lengthAdjust="spacingAndGlyphs"
text-anchor="start" opacity="0" stroke-opacity="0">NOTE: Holes are tapped for M2.5 screws</text>
<g class="stroked-text"><desc>NOTE: Holes are tapped for M2.5 screws</desc>
<path d="M57.6073 153.5779
L57.6073 147.5779
" />
<path d="M57.6073 147.5779
L61.0358 153.5779
" />
<path d="M61.0358 153.5779
L61.0358 147.5779
" />
<path d="M65.0358 147.5779
L66.1787 147.5779
" />
<path d="M66.1787 147.5779
L66.7501 147.8636
" />
<path d="M66.7501 147.8636
L67.3215 148.4351
" />
<path d="M67.3215 148.4351
L67.6073 149.5779
" />
<path d="M67.6073 149.5779
L67.6073 151.5779
" />
<path d="M67.6073 151.5779
L67.3215 152.7208
" />
<path d="M67.3215 152.7208
L66.7501 153.2922
" />
<path d="M66.7501 153.2922
L66.1787 153.5779
" />
<path d="M66.1787 153.5779
L65.0358 153.5779
" />
<path d="M65.0358 153.5779
L64.4644 153.2922
" />
<path d="M64.4644 153.2922
L63.8930 152.7208
" />
<path d="M63.8930 152.7208
L63.6073 151.5779
" />
<path d="M63.6073 151.5779
L63.6073 149.5779
" />
<path d="M63.6073 149.5779
L63.8930 148.4351
" />
<path d="M63.8930 148.4351
L64.4644 147.8636
" />
<path d="M64.4644 147.8636
L65.0358 147.5779
" />
<path d="M69.3215 147.5779
L72.7501 147.5779
" />
<path d="M71.0358 153.5779
L71.0358 147.5779
" />
<path d="M74.7501 150.4351
L76.7501 150.4351
" />
<path d="M77.6073 153.5779
L74.7501 153.5779
" />
<path d="M74.7501 153.5779
L74.7501 147.5779
" />
<path d="M74.7501 147.5779
L77.6073 147.5779
" />
<path d="M80.1787 153.0065
L80.4644 153.2922
" />
<path d="M80.4644 153.2922
L80.1787 153.5779
" />
<path d="M80.1787 153.5779
L79.8930 153.2922
" />
<path d="M79.8930 153.2922
L80.1787 153.0065
" />
<path d="M80.1787 153.0065
L80.1787 153.5779
" />
<path d="M80.1787 149.8636
L80.4644 150.1493
" />
<path d="M80.4644 150.1493
L80.1787 150.4351
" />
<path d="M80.1787 150.4351
L79.8930 150.1493
" />
<path d="M79.8930 150.1493
L80.1787 149.8636
" />
<path d="M80.1787 149.8636
L80.1787 150.4351
" />
<path d="M87.6073 153.5779
L87.6073 147.5779
" />
<path d="M87.6073 150.4351
L91.0358 150.4351
" />
<path d="M91.0358 153.5779
L91.0358 147.5779
" />
<path d="M94.7501 153.5779
L94.1787 153.2922
" />
<path d="M94.1787 153.2922
L93.8930 153.0065
" />
<path d="M93.8930 153.0065
L93.6073 152.4351
" />
<path d="M93.6073 152.4351
L93.6073 150.7208
" />
<path d="M93.6073 150.7208
L93.8930 150.1493
" />
<path d="M93.8930 150.1493
L94.1787 149.8636
" />
<path d="M94.1787 149.8636
L94.7501 149.5779
" />
<path d="M94.7501 149.5779
L95.6073 149.5779
" />
<path d="M95.6073 149.5779
L96.1787 149.8636
" />
<path d="M96.1787 149.8636
L96.4644 150.1493
" />
<path d="M96.4644 150.1493
L96.7501 150.7208
" />
<path d="M96.7501 150.7208
L96.7501 152.4351
" />
<path d="M96.7501 152.4351
L96.4644 153.0065
" />
<path d="M96.4644 153.0065
L96.1787 153.2922
" />
<path d="M96.1787 153.2922
L95.6073 153.5779
" />
<path d="M95.6073 153.5779
L94.7501 153.5779
" />
<path d="M100.1787 153.5779
L99.6073 153.2922
" />
<path d="M99.6073 153.2922
L99.3215 152.7208
" />
<path d="M99.3215 152.7208
L99.3215 147.5779
" />
<path d="M104.7501 153.2922
L104.1787 153.5779
" />
<path d="M104.1787 153.5779
L103.0358 153.5779
" />
<path d="M103.0358 153.5779
L102.4644 153.2922
" />
<path d="M102.4644 153.2922
L102.1787 152.7208
" />
<path d="M102.1787 152.7208
L102.1787 150.4351
" />
<path d="M102.1787 150.4351
L102.4644 149.8636
" />
<path d="M102.4644 149.8636
L103.0358 149.5779
" />
<path d="M103.0358 149.5779
L104.1787 149.5779
" />
<path d="M104.1787 149.5779
L104.7501 149.8636
" />
<path d="M104.7501 149.8636
L105.0358 150.4351
" />
<path d="M105.0358 150.4351
L105.0358 151.0065
" />
<path d="M105.0358 151.0065
L102.1787 151.5779
" />
<path d="M107.3215 153.2922
L107.8930 153.5779
" />
<path d="M107.8930 153.5779
L109.0358 153.5779
" />
<path d="M109.0358 153.5779
L109.6073 153.2922
" />
<path d="M109.6073 153.2922
L109.8930 152.7208
" />
<path d="M109.8930 152.7208
L109.8930 152.4351
" />
<path d="M109.8930 152.4351
L109.6073 151.8636
" />
<path d="M109.6073 151.8636
L109.0358 151.5779
" />
<path d="M109.0358 151.5779
L108.1787 151.5779
" />
<path d="M108.1787 151.5779
L107.6073 151.2922
" />
<path d="M107.6073 151.2922
L107.3215 150.7208
" />
<path d="M107.3215 150.7208
L107.3215 150.4351
" />
<path d="M107.3215 150.4351
L107.6073 149.8636
" />
<path d="M107.6073 149.8636
L108.1787 149.5779
" />
<path d="M108.1787 149.5779
L109.0358 149.5779
" />
<path d="M109.0358 149.5779
L109.6073 149.8636
" />
<path d="M119.6073 153.5779
L119.6073 150.4351
" />
<path d="M119.6073 150.4351
L119.3215 149.8636
" />
<path d="M119.3215 149.8636
L118.7501 149.5779
" />
<path d="M118.7501 149.5779
L117.6073 149.5779
" />
<path d="M117.6073 149.5779
L117.0358 149.8636
" />
<path d="M119.6073 153.2922
L119.0358 153.5779
" />
<path d="M119.0358 153.5779
L117.6073 153.5779
" />
<path d="M117.6073 153.5779
L117.0358 153.2922
" />
<path d="M117.0358 153.2922
L116.7501 152.7208
" />
<path d="M116.7501 152.7208
L116.7501 152.1493
" />
<path d="M116.7501 152.1493
L117.0358 151.5779
" />
<path d="M117.0358 151.5779
L117.6073 151.2922
" />
<path d="M117.6073 151.2922
L119.0358 151.2922
" />
<path d="M119.0358 151.2922
L119.6073 151.0065
" />
<path d="M122.4644 153.5779
L122.4644 149.5779
" />
<path d="M122.4644 150.7208
L122.7501 150.1493
" />
<path d="M122.7501 150.1493
L123.0358 149.8636
" />
<path d="M123.0358 149.8636
L123.6073 149.5779
" />
<path d="M123.6073 149.5779
L124.1787 149.5779
" />
<path d="M128.4644 153.2922
L127.8930 153.5779
" />
<path d="M127.8930 153.5779
L126.7501 153.5779
" />
<path d="M126.7501 153.5779
L126.1787 153.2922
" />
<path d="M126.1787 153.2922
L125.8930 152.7208
" />
<path d="M125.8930 152.7208
L125.8930 150.4351
" />
<path d="M125.8930 150.4351
L126.1787 149.8636
" />
<path d="M126.1787 149.8636
L126.7501 149.5779
" />
<path d="M126.7501 149.5779
L127.8930 149.5779
" />
<path d="M127.8930 149.5779
L128.4644 149.8636
" />
<path d="M128.4644 149.8636
L128.7501 150.4351
" />
<path d="M128.7501 150.4351
L128.7501 151.0065
" />
<path d="M128.7501 151.0065
L125.8930 151.5779
" />
<path d="M135.0358 149.5779
L137.3215 149.5779
" />
<path d="M135.8930 147.5779
L135.8930 152.7208
" />
<path d="M135.8930 152.7208
L136.1787 153.2922
" />
<path d="M136.1787 153.2922
L136.7501 153.5779
" />
<path d="M136.7501 153.5779
L137.3215 153.5779
" />
<path d="M141.8930 153.5779
L141.8930 150.4351
" />
<path d="M141.8930 150.4351
L141.6073 149.8636
" />
<path d="M141.6073 149.8636
L141.0358 149.5779
" />
<path d="M141.0358 149.5779
L139.8930 149.5779
" />
<path d="M139.8930 149.5779
L139.3215 149.8636
" />
<path d="M141.8930 153.2922
L141.3215 153.5779
" />
<path d="M141.3215 153.5779
L139.8930 153.5779
" />
<path d="M139.8930 153.5779
L139.3215 153.2922
" />
<path d="M139.3215 153.2922
L139.0358 152.7208
" />
<path d="M139.0358 152.7208
L139.0358 152.1493
" />
<path d="M139.0358 152.1493
L139.3215 151.5779
" />
<path d="M139.3215 151.5779
L139.8930 151.2922
" />
<path d="M139.8930 151.2922
L141.3215 151.2922
" />
<path d="M141.3215 151.2922
L141.8930 151.0065
" />
<path d="M144.7501 149.5779
L144.7501 155.5779
" />
<path d="M144.7501 149.8636
L145.3215 149.5779
" />
<path d="M145.3215 149.5779
L146.4644 149.5779
" />
<path d="M146.4644 149.5779
L147.0358 149.8636
" />
<path d="M147.0358 149.8636
L147.3215 150.1493
" />
<path d="M147.3215 150.1493
L147.6073 150.7208
" />
<path d="M147.6073 150.7208
L147.6073 152.4351
" />
<path d="M147.6073 152.4351
L147.3215 153.0065
" />
<path d="M147.3215 153.0065
L147.0358 153.2922
" />
<path d="M147.0358 153.2922
L146.4644 153.5779
" />
<path d="M146.4644 153.5779
L145.3215 153.5779
" />
<path d="M145.3215 153.5779
L144.7501 153.2922
" />
<path d="M150.1787 149.5779
L150.1787 155.5779
" />
<path d="M150.1787 149.8636
L150.7501 149.5779
" />
<path d="M150.7501 149.5779
L151.8930 149.5779
" />
<path d="M151.8930 149.5779
L152.4644 149.8636
" />
<path d="M152.4644 149.8636
L152.7501 150.1493
" />
<path d="M152.7501 150.1493
L153.0358 150.7208
" />
<path d="M153.0358 150.7208
L153.0358 152.4351
" />
<path d="M153.0358 152.4351
L152.7501 153.0065
" />
<path d="M152.7501 153.0065
L152.4644 153.2922
" />
<path d="M152.4644 153.2922
L151.8930 153.5779
" />
<path d="M151.8930 153.5779
L150.7501 153.5779
" />
<path d="M150.7501 153.5779
L150.1787 153.2922
" />
<path d="M157.8930 153.2922
L157.3215 153.5779
" />
<path d="M157.3215 153.5779
L156.1787 153.5779
" />
<path d="M156.1787 153.5779
L155.6073 153.2922
" />
<path d="M155.6073 153.2922
L155.3215 152.7208
" />
<path d="M155.3215 152.7208
L155.3215 150.4351
" />
<path d="M155.3215 150.4351
L155.6073 149.8636
" />
<path d="M155.6073 149.8636
L156.1787 149.5779
" />
<path d="M156.1787 149.5779
L157.3215 149.5779
" />
<path d="M157.3215 149.5779
L157.8930 149.8636
" />
<path d="M157.8930 149.8636
L158.1787 150.4351
" />
<path d="M158.1787 150.4351
L158.1787 151.0065
" />
<path d="M158.1787 151.0065
L155.3215 151.5779
" />
<path d="M163.3215 153.5779
L163.3215 147.5779
" />
<path d="M163.3215 153.2922
L162.7501 153.5779
" />
<path d="M162.7501 153.5779
L161.6073 153.5779
" />
<path d="M161.6073 153.5779
L161.0358 153.2922
" />
<path d="M161.0358 153.2922
L160.7501 153.0065
" />
<path d="M160.7501 153.0065
L160.4644 152.4351
" />
<path d="M160.4644 152.4351
L160.4644 150.7208
" />
<path d="M160.4644 150.7208
L160.7501 150.1493
" />
<path d="M160.7501 150.1493
L161.0358 149.8636
" />
<path d="M161.0358 149.8636
L161.6073 149.5779
" />
<path d="M161.6073 149.5779
L162.7501 149.5779
" />
<path d="M162.7501 149.5779
L163.3215 149.8636
" />
<path d="M169.8930 149.5779
L172.1787 149.5779
" />
<path d="M170.7501 153.5779
L170.7501 148.4351
" />
<path d="M170.7501 148.4351
L171.0358 147.8636
" />
<path d="M171.0358 147.8636
L171.6073 147.5779
" />
<path d="M171.6073 147.5779
L172.1787 147.5779
" />
<path d="M175.0358 153.5779
L174.4644 153.2922
" />
<path d="M174.4644 153.2922
L174.1787 153.0065
" />
<path d="M174.1787 153.0065
L173.8930 152.4351
" />
<path d="M173.8930 152.4351
L173.8930 150.7208
" />
<path d="M173.8930 150.7208
L174.1787 150.1493
" />
<path d="M174.1787 150.1493
L174.4644 149.8636
" />
<path d="M174.4644 149.8636
L175.0358 149.5779
" />
<path d="M175.0358 149.5779
L175.8930 149.5779
" />
<path d="M175.8930 149.5779
L176.4644 149.8636
" />
<path d="M176.4644 149.8636
L176.7501 150.1493
" />
<path d="M176.7501 150.1493
L177.0358 150.7208
" />
<path d="M177.0358 150.7208
L177.0358 152.4351
" />
<path d="M177.0358 152.4351
L176.7501 153.0065
" />
<path d="M176.7501 153.0065
L176.4644 153.2922
" />
<path d="M176.4644 153.2922
L175.8930 153.5779
" />
<path d="M175.8930 153.5779
L175.0358 153.5779
" />
<path d="M179.6073 153.5779
L179.6073 149.5779
" />
<path d="M179.6073 150.7208
L179.8930 150.1493
" />
<path d="M179.8930 150.1493
L180.1787 149.8636
" />
<path d="M180.1787 149.8636
L180.7501 149.5779
" />
<path d="M180.7501 149.5779
L181.3215 149.5779
" />
<path d="M187.8930 153.5779
L187.8930 147.5779
" />
<path d="M187.8930 147.5779
L189.8930 151.8636
" />
<path d="M189.8930 151.8636
L191.8930 147.5779
" />
<path d="M191.8930 147.5779
L191.8930 153.5779
" />
<path d="M194.4644 148.1493
L194.7501 147.8636
" />
<path d="M194.7501 147.8636
L195.3215 147.5779
" />
<path d="M195.3215 147.5779
L196.7501 147.5779
" />
<path d="M196.7501 147.5779
L197.3215 147.8636
" />
<path d="M197.3215 147.8636
L197.6073 148.1493
" />
<path d="M197.6073 148.1493
L197.8930 148.7208
" />
<path d="M197.8930 148.7208
L197.8930 149.2922
" />
<path d="M197.8930 149.2922
L197.6073 150.1493
" />
<path d="M197.6073 150.1493
L194.1787 153.5779
" />
<path d="M194.1787 153.5779
L197.8930 153.5779
" />
<path d="M200.4644 153.0065
L200.7501 153.2922
" />
<path d="M200.7501 153.2922
L200.4644 153.5779
" />
<path d="M200.4644 153.5779
L200.1787 153.2922
" />
<path d="M200.1787 153.2922
L200.4644 153.0065
" />
<path d="M200.4644 153.0065
L200.4644 153.5779
" />
<path d="M206.1787 147.5779
L203.3215 147.5779
" />
<path d="M203.3215 147.5779
L203.0358 150.4351
" />
<path d="M203.0358 150.4351
L203.3215 150.1493
" />
<path d="M203.3215 150.1493
L203.8930 149.8636
" />
<path d="M203.8930 149.8636
L205.3215 149.8636
" />
<path d="M205.3215 149.8636
L205.8930 150.1493
" />
<path d="M205.8930 150.1493
L206.1787 150.4351
" />
<path d="M206.1787 150.4351
L206.4644 151.0065
" />
<path d="M206.4644 151.0065
L206.4644 152.4351
" />
<path d="M206.4644 152.4351
L206.1787 153.0065
" />
<path d="M206.1787 153.0065
L205.8930 153.2922
" />
<path d="M205.8930 153.2922
L205.3215 153.5779
" />
<path d="M205.3215 153.5779
L203.8930 153.5779
" />
<path d="M203.8930 153.5779
L203.3215 153.2922
" />
<path d="M203.3215 153.2922
L203.0358 153.0065
" />
<path d="M213.3215 153.2922
L213.8930 153.5779
" />
<path d="M213.8930 153.5779
L215.0358 153.5779
" />
<path d="M215.0358 153.5779
L215.6073 153.2922
" />
<path d="M215.6073 153.2922
L215.8930 152.7208
" />
<path d="M215.8930 152.7208
L215.8930 152.4351
" />
<path d="M215.8930 152.4351
L215.6073 151.8636
" />
<path d="M215.6073 151.8636
L215.0358 151.5779
" />
<path d="M215.0358 151.5779
L214.1787 151.5779
" />
<path d="M214.1787 151.5779
L213.6073 151.2922
" />
<path d="M213.6073 151.2922
L213.3215 150.7208
" />
<path d="M213.3215 150.7208
L213.3215 150.4351
" />
<path d="M213.3215 150.4351
L213.6073 149.8636
" />
<path d="M213.6073 149.8636
L214.1787 149.5779
" />
<path d="M214.1787 149.5779
L215.0358 149.5779
" />
<path d="M215.0358 149.5779
L215.6073 149.8636
" />
<path d="M221.0358 153.2922
L220.4644 153.5779
" />
<path d="M220.4644 153.5779
L219.3215 153.5779
" />
<path d="M219.3215 153.5779
L218.7501 153.2922
" />
<path d="M218.7501 153.2922
L218.4644 153.0065
" />
<path d="M218.4644 153.0065
L218.1787 152.4351
" />
<path d="M218.1787 152.4351
L218.1787 150.7208
" />
<path d="M218.1787 150.7208
L218.4644 150.1493
" />
<path d="M218.4644 150.1493
L218.7501 149.8636
" />
<path d="M218.7501 149.8636
L219.3215 149.5779
" />
<path d="M219.3215 149.5779
L220.4644 149.5779
" />
<path d="M220.4644 149.5779
L221.0358 149.8636
" />
<path d="M223.6073 153.5779
L223.6073 149.5779
" />
<path d="M223.6073 150.7208
L223.8930 150.1493
" />
<path d="M223.8930 150.1493
L224.1787 149.8636
" />
<path d="M224.1787 149.8636
L224.7501 149.5779
" />
<path d="M224.7501 149.5779
L225.3215 149.5779
" />
<path d="M229.6073 153.2922
L229.0358 153.5779
" />
<path d="M229.0358 153.5779
L227.8930 153.5779
" />
<path d="M227.8930 153.5779
L227.3215 153.2922
" />
<path d="M227.3215 153.2922
L227.0358 152.7208
" />
<path d="M227.0358 152.7208
L227.0358 150.4351
" />
<path d="M227.0358 150.4351
L227.3215 149.8636
" />
<path d="M227.3215 149.8636
L227.8930 149.5779
" />
<path d="M227.8930 149.5779
L229.0358 149.5779
" />
<path d="M229.0358 149.5779
L229.6073 149.8636
" />
<path d="M229.6073 149.8636
L229.8930 150.4351
" />
<path d="M229.8930 150.4351
L229.8930 151.0065
" />
<path d="M229.8930 151.0065
L227.0358 151.5779
" />
<path d="M231.8930 149.5779
L233.0358 153.5779
" />
<path d="M233.0358 153.5779
L234.1787 150.7208
" />
<path d="M234.1787 150.7208
L235.3215 153.5779
" />
<path d="M235.3215 153.5779
L236.4644 149.5779
" />
<path d="M238.4644 153.2922
L239.0358 153.5779
" />
<path d="M239.0358 153.5779
L240.1787 153.5779
" />
<path d="M240.1787 153.5779
L240.7501 153.2922
" />
<path d="M240.7501 153.2922
L241.0358 152.7208
" />
<path d="M241.0358 152.7208
L241.0358 152.4351
" />
<path d="M241.0358 152.4351
L240.7501 151.8636
" />
<path d="M240.7501 151.8636
L240.1787 151.5779
" />
<path d="M240.1787 151.5779
L239.3215 151.5779
" />
<path d="M239.3215 151.5779
L238.7501 151.2922
" />
<path d="M238.7501 151.2922
L238.4644 150.7208
" />
<path d="M238.4644 150.7208
L238.4644 150.4351
" />
<path d="M238.4644 150.4351
L238.7501 149.8636
" />
<path d="M238.7501 149.8636
L239.3215 149.5779
" />
<path d="M239.3215 149.5779
L240.1787 149.5779
" />
<path d="M240.1787 149.5779
L240.7501 149.8636
" />
</g></g> 
</svg>
